<svg width="242" height="226" viewBox="0 0 242 226" fill="none" xmlns="http://www.w3.org/2000/svg">
<path d="M110.537 206.32C106.543 199.922 102.319 193.657 98.3922 187.221C95.3355 182.211 92.5375 177.044 89.4649 172.047C87.9904 169.649 86.3999 167.316 84.7584 165.03C84.1987 164.25 83.3467 163.317 83.0477 162.387C82.8177 161.671 83.4347 160.351 83.7088 159.772C85.637 155.701 88.6282 151.138 92.4718 148.614C98.1858 144.861 104.555 145.652 110.284 148.965C113.979 151.103 117.341 153.549 119.748 157.138C122.819 161.718 124.091 167.688 124.586 173.094C125.2 179.79 124.953 185.901 121.02 191.52C119.094 194.271 116.772 196.644 114.684 199.265C114.007 200.116 113.669 201.14 112.972 201.98C112.7 202.309 112.367 202.786 112.328 203.181" stroke="#7C3232" stroke-width="10" stroke-linecap="round" stroke-linejoin="round"/>
<path d="M147.061 171.595C144.164 174.765 138.437 176.878 134.621 174.04C131.06 171.393 129.151 165.916 128.451 161.713C127.768 157.615 128.127 153.509 131.366 150.499C133.62 148.404 138.031 149.544 140.48 150.587C146.51 153.156 151.849 160.188 150.972 167.037C150.684 169.286 149.529 170.751 148.138 172.272" stroke="#7C3232" stroke-width="10" stroke-linecap="round" stroke-linejoin="round"/>
<path d="M175.881 164.347C170.859 158.26 165.133 152.456 159.354 147.08C155.844 143.815 152.037 140.534 149.315 136.541C145.051 130.284 145.183 113.888 155.308 112.961C159.965 112.534 164.119 115.676 166.728 119.292C170.992 125.201 171.944 132.925 171.429 140.054C171.207 143.12 170.105 146.995 168.294 149.551" stroke="#7C3232" stroke-width="10" stroke-linecap="round" stroke-linejoin="round"/>
<path d="M176.4 123.828C182.459 119.691 187.555 114.546 187.895 106.854C188.037 103.642 186.71 98.1371 182.434 99.5665C180.158 100.327 178.442 102.151 177.154 104.106C174.619 107.95 172.65 112.52 172.033 117.105C171.126 123.845 171.854 131.263 177.514 135.72C182.286 139.478 189.079 140.331 194.791 138.381C198.412 137.145 202.936 134.263 204.941 130.837C205.593 129.723 205.977 128.489 205.5 127.248C205.321 126.78 205.278 126.531 205.323 126.075" stroke="#7C3232" stroke-width="10" stroke-linecap="round" stroke-linejoin="round"/>
<path d="M84.4144 137.774C72.6466 127.111 61.1189 116.74 47.6086 108.382C45.106 106.833 42.2798 105.48 39.9646 103.656C38.3569 102.389 44.6769 103.487 44.9378 103.543C60.9379 106.98 77.1501 108.962 93.2759 111.765C98.5664 112.684 104.127 113.104 109.503 112.891C111.143 112.826 111.657 112.477 112.238 110.875C112.98 108.827 112.646 106.329 112.51 104.212C112.289 100.786 111.554 97.4597 110.821 94.1158C109.483 88.017 109.406 81.963 108.803 75.7906C108.476 72.4485 107.748 69.1121 107.562 65.7594C107.511 64.8419 107.149 63.7259 107.857 62.9515C108.632 62.1041 110.184 62.8207 110.926 63.2648C114.747 65.5491 118.008 68.897 121.546 71.5936C125.901 74.9121 130.622 77.716 134.972 81.0489C138.647 83.8656 142.342 86.9071 146.268 89.3726C147.965 90.4386 150.164 92.3679 152.349 91.5292C154.688 90.6315 155.488 86.5847 155.855 84.5909C156.955 78.6106 156.817 72.6135 157.041 66.5778C157.254 60.831 158.096 54.9914 158.594 49.2546C158.95 45.1548 159.72 40.8106 160.681 36.8106C161.138 34.909 161.546 32.7733 162.577 31.0662C163.507 29.5268 176.565 44.3611 177.447 45.39C185.607 54.8993 195.247 63.2188 206.346 69.1069C206.974 69.4402 207.614 69.7447 208.261 70.0329C208.799 70.2727 207.076 69.9389 206.492 70.0169C204.801 70.2428 202.954 71.1736 201.476 71.9595C194.432 75.7046 187.259 79.2183 180.261 83.0517C163.034 92.489 146.55 103.539 129.835 113.848C116.925 121.81 103.961 129.724 91.407 138.242C82.3507 144.387 73.3908 150.712 64.735 157.412C56.6624 163.661 49.0069 170.391 41.1843 176.943" stroke="#7C3232" stroke-width="10" stroke-linecap="round" stroke-linejoin="round"/>
<path d="M33.5901 95.9679C31.4867 97.6297 28.0123 101.182 24.9199 100.533C23.0262 100.136 20.8946 98.85 19.8512 97.1744C17.3619 93.1769 20.8043 88.1602 24.9149 87.2314C28.6988 86.3764 33.1428 89.8054 34.7007 93.0334C35.4119 94.5069 36.2824 98.9001 34.1193 99.7305" stroke="#7C3232" stroke-width="10" stroke-linecap="round" stroke-linejoin="round"/>
<path d="M107.923 52.7917C103.131 56.6063 93.3 64.7873 89.2048 55.9941C86.5709 50.3384 91.5974 41.7383 97.891 41.0508C105.608 40.2077 110.557 50.2878 105.447 55.8775" stroke="#7C3232" stroke-width="10" stroke-linecap="round" stroke-linejoin="round"/>
<path d="M161.431 23.7102C158.122 26.2654 154.846 29.3069 150.382 28.8329C147.723 28.5505 143.858 27.5135 143.36 24.3595C142.435 18.4959 148.552 11.5329 154.197 10.6921C163.946 9.24013 164.872 21.6526 163.166 28.2301" stroke="#7C3232" stroke-width="10" stroke-linecap="round" stroke-linejoin="round"/>
</svg>
